<svg width="28" height="28" viewBox="0 0 28 28" fill="none" xmlns="http://www.w3.org/2000/svg">
<g clip-path="url(#clip0_105_22)">
<path d="M14 4.81249C18.1673 4.80425 22.2223 6.16283 25.5434 8.67999L27.4365 5.58293C27.5532 5.38949 27.5898 5.15816 27.5386 4.93814C27.4873 4.71812 27.3523 4.52676 27.1622 4.40474C23.2601 1.81742 18.682 0.437522 14 0.437522C9.31804 0.437521 4.73992 1.81741 0.837807 4.40474C0.647688 4.52676 0.512661 4.71812 0.461436 4.93814C0.410208 5.15816 0.446823 5.38948 0.563494 5.58293L2.45656 8.67999C5.77772 6.16283 9.83272 4.80425 14 4.81249Z" fill="#8A490E"/>
<path d="M0.5635 5.58293L2.45656 8.67999C2.7545 8.45424 3.06119 8.23987 3.37269 8.03118L1.876 5.58118C1.75933 5.38773 1.72271 5.15641 1.77394 4.93639C1.82517 4.71637 1.96019 4.52501 2.15031 4.40299C5.86192 1.93055 10.1979 0.559901 14.6563 0.449743C14.4375 0.444056 14.2188 0.437493 14 0.437493C9.31638 0.426179 4.73505 1.80705 0.837813 4.40474C0.647695 4.52676 0.512667 4.71812 0.461441 4.93814C0.410215 5.15816 0.446829 5.38948 0.5635 5.58293Z" fill="#A16D3E"/>
<path d="M2.45659 8.68C5.78176 6.17049 9.83416 4.81294 14 4.81294C18.1659 4.81294 22.2183 6.1705 25.5435 8.68L16.5349 23.415L14 27.5625L11.4651 23.415L2.45659 8.68Z" fill="#F6B361"/>
<path d="M11.4651 23.415L14 27.5625L14.6563 26.4889L12.7776 23.415L3.76907 8.68C6.91163 6.29922 10.7157 4.95262 14.6563 4.82606C14.4375 4.81862 14.2188 4.8125 14 4.8125C9.83277 4.80451 5.77785 6.16307 2.45657 8.68L11.4651 23.415Z" fill="#F8C281"/>
<path d="M11.5281 23.415C11.8957 23.2633 12.2898 23.186 12.6875 23.1875C13.1417 23.1879 13.59 23.2895 14 23.485C14.41 23.2895 14.8583 23.1879 15.3125 23.1875C15.7102 23.186 16.1042 23.2633 16.4719 23.415L14 27.5625L11.5281 23.415Z" fill="#FFFF97"/>
<path d="M14 27.5625L14.6563 26.4613L12.8406 23.415C13.0024 23.3488 13.1698 23.2972 13.3407 23.2606C12.735 23.125 12.1022 23.1789 11.5281 23.415L14 27.5625Z" fill="#FFFFAC"/>
<path d="M0.190317 5.81086L2.08338 8.90793L13.6207 27.7812L13.6242 27.7865L13.6264 27.7904C13.6404 27.8114 13.6567 27.8308 13.6749 27.8482C13.6824 27.8565 13.6881 27.8666 13.6959 27.874C13.7809 27.946 13.8886 27.9855 14 27.9855C14.1114 27.9855 14.2191 27.946 14.3041 27.874C14.3124 27.8661 14.3185 27.8556 14.3264 27.8469C14.344 27.8297 14.3598 27.8108 14.3736 27.7904L14.3758 27.7869L14.3793 27.7812L25.9166 8.90793L27.8097 5.81087C27.9846 5.5209 28.0403 5.17436 27.9649 4.84421C27.8895 4.51405 27.6889 4.22602 27.4054 4.04074C23.4313 1.40548 18.7685 1.63593e-05 14 1.59424e-05C9.23149 1.55255e-05 4.56875 1.40548 0.594567 4.04074C0.311093 4.22602 0.11055 4.51405 0.0351526 4.84421C-0.0402469 5.17436 0.0153771 5.52089 0.190317 5.81086ZM3.19375 8.68436C3.29175 8.6148 3.38975 8.54612 3.48863 8.47874C3.59538 8.40553 3.70286 8.33378 3.81107 8.26349C3.91257 8.19743 4.0145 8.13224 4.11732 8.06793C4.22013 8.00362 4.33388 7.93405 4.44325 7.86887C4.55263 7.80368 4.65238 7.74462 4.75782 7.68468C4.86325 7.62474 4.97657 7.5613 5.08813 7.50093C5.19969 7.44055 5.30207 7.38499 5.40969 7.32943C5.51732 7.27386 5.63413 7.21524 5.74701 7.15968C5.85988 7.10412 5.96575 7.05249 6.07382 7.0013C6.18188 6.95012 6.30175 6.89674 6.41594 6.84599C6.53013 6.79524 6.63819 6.74711 6.75019 6.7003C6.86219 6.65349 6.98163 6.60537 7.10019 6.55943C7.21875 6.51349 7.32419 6.47193 7.43707 6.42818C7.54994 6.38443 7.67507 6.34068 7.7945 6.30043C7.91394 6.26018 8.02025 6.2208 8.13357 6.18318C8.25432 6.1438 8.37594 6.10662 8.49757 6.06943C8.61132 6.03487 8.72507 5.99899 8.83925 5.96662C8.9635 5.93118 9.08819 5.8988 9.21332 5.86643C9.32663 5.83668 9.43994 5.80561 9.55369 5.77893C9.68144 5.74787 9.8105 5.72074 9.93869 5.69143C10.0516 5.66649 10.164 5.64068 10.2773 5.61793C10.4086 5.59124 10.5438 5.56849 10.6772 5.54487C10.7874 5.52518 10.8959 5.50418 11.0079 5.48624C11.1471 5.46437 11.2871 5.44643 11.4271 5.42718C11.5338 5.41274 11.6397 5.39655 11.7469 5.38343C11.8939 5.36593 12.0418 5.3528 12.1896 5.33968C12.2907 5.33005 12.3913 5.31824 12.4928 5.31037C12.6569 5.29724 12.8227 5.28937 12.9876 5.28062C13.0751 5.27624 13.1587 5.26924 13.2444 5.26574C13.4947 5.25524 13.7465 5.24999 14 5.24999C14.2535 5.24999 14.5059 5.25495 14.7573 5.26487C14.8448 5.26837 14.9284 5.27537 15.0141 5.27974C15.1791 5.28849 15.3449 5.29637 15.5089 5.30949C15.6104 5.31737 15.7111 5.32918 15.8121 5.3388C15.96 5.3528 16.1079 5.36593 16.2549 5.38255C16.3621 5.39524 16.4684 5.41143 16.5751 5.4263C16.7147 5.44555 16.8547 5.46349 16.9938 5.48537C17.1045 5.5033 17.2126 5.5243 17.325 5.54399C17.4563 5.56762 17.5919 5.59037 17.7244 5.61705C17.8378 5.6398 17.9502 5.66562 18.0631 5.69055C18.1913 5.71899 18.3203 5.74612 18.4481 5.77805C18.5618 5.80562 18.6751 5.83668 18.7884 5.86555C18.9136 5.89793 19.0383 5.9303 19.1625 5.96574C19.2767 5.99812 19.3904 6.03399 19.5042 6.06855C19.6258 6.10574 19.7474 6.14293 19.8682 6.1823C19.9815 6.21993 20.0944 6.26018 20.2073 6.29955C20.3267 6.3433 20.4461 6.38312 20.5647 6.4273C20.6833 6.47149 20.7896 6.5148 20.9016 6.55855C21.0136 6.60231 21.1339 6.65087 21.2516 6.69943C21.3693 6.74799 21.4747 6.79568 21.5858 6.84512C21.6969 6.89455 21.8146 6.94705 21.9279 7.00043C22.0413 7.0538 22.1467 7.10499 22.2552 7.1588C22.3637 7.21262 22.4801 7.27037 22.5916 7.32812C22.7032 7.38587 22.8069 7.44187 22.9136 7.50005C23.0204 7.55824 23.1346 7.62124 23.2439 7.68381C23.3533 7.74637 23.4539 7.80587 23.5585 7.86799C23.6631 7.93012 23.7773 7.99924 23.8844 8.06705C23.9916 8.13487 24.0888 8.1983 24.1907 8.26262C24.2926 8.32693 24.4064 8.4048 24.5131 8.47787C24.612 8.54524 24.71 8.61393 24.808 8.68349C24.8596 8.72024 24.9108 8.75787 24.962 8.79549L16.3358 22.9027C15.5681 22.6701 14.7439 22.707 14 23.0072C13.2566 22.705 12.4317 22.6679 11.6642 22.9022L3.04063 8.79637C3.09182 8.75874 3.143 8.72111 3.19375 8.68436ZM12.1901 23.6714C12.7395 23.5686 13.3073 23.6417 13.8128 23.8805C13.8713 23.9082 13.9352 23.9226 14 23.9226C14.0648 23.9226 14.1287 23.9082 14.1873 23.8805C14.6927 23.6418 15.2605 23.5687 15.8099 23.6714L14 26.7081L12.1901 23.6714ZM1.08107 4.76874C4.91121 2.22962 9.40467 0.87546 14 0.87546C18.5953 0.875461 23.0888 2.22962 26.9189 4.76874C27.0153 4.82782 27.0844 4.92252 27.1114 5.03229C27.1383 5.14205 27.1209 5.25801 27.0629 5.35499L25.4188 8.04387C25.3728 8.01105 25.3256 7.98043 25.2796 7.94806C25.1825 7.87893 25.0845 7.81156 24.9861 7.74462C24.8694 7.66441 24.7511 7.58551 24.6313 7.50793C24.5315 7.44318 24.4309 7.37974 24.3303 7.31674C24.2104 7.24207 24.0902 7.16916 23.9698 7.09799C23.8671 7.03732 23.7641 6.97739 23.6609 6.91818C23.5388 6.84862 23.4168 6.78081 23.2934 6.71431C23.189 6.65597 23.084 6.60012 22.9784 6.54674C22.855 6.48287 22.7309 6.42045 22.6061 6.35949C22.4989 6.30655 22.3913 6.25449 22.2832 6.20418C22.1576 6.14512 22.0316 6.08868 21.9048 6.03268C21.7958 5.98456 21.686 5.93643 21.5771 5.89049C21.4493 5.83668 21.3211 5.78549 21.1925 5.73474C21.0818 5.69099 20.9707 5.64724 20.8591 5.60349C20.7279 5.55537 20.5993 5.50943 20.4684 5.46393C20.3564 5.42455 20.2444 5.38518 20.1311 5.34799C19.9999 5.30424 19.8686 5.26443 19.7334 5.22374C19.6201 5.18918 19.5073 5.15418 19.3931 5.1218C19.2583 5.0833 19.1227 5.0483 18.9866 5.01287C18.8733 4.98312 18.7604 4.95249 18.6467 4.92537C18.5084 4.89212 18.3698 4.86237 18.2306 4.83174C18.1169 4.80724 18.004 4.78099 17.8898 4.75824C17.7481 4.7298 17.605 4.7053 17.4628 4.68037C17.3504 4.66024 17.2388 4.63924 17.1264 4.6213C16.9789 4.59768 16.8306 4.57755 16.6828 4.55874C16.5729 4.54387 16.464 4.5268 16.3538 4.51499C16.198 4.49618 16.0409 4.48262 15.8839 4.46774C15.7811 4.45812 15.6787 4.4463 15.5776 4.43799C15.4026 4.42443 15.2276 4.41568 15.0526 4.40649C14.9651 4.40212 14.8776 4.39512 14.7901 4.39162C14.5279 4.38053 14.2645 4.37499 14 4.37499C13.7355 4.37499 13.4719 4.38024 13.2094 4.39074C13.1219 4.39424 13.0344 4.40124 12.9491 4.40562C12.7741 4.4148 12.5991 4.42355 12.4241 4.43712C12.3213 4.44499 12.2189 4.45724 12.1179 4.46687C11.9608 4.48174 11.8038 4.4953 11.6476 4.51412C11.5373 4.5268 11.4288 4.54387 11.3186 4.55787C11.1707 4.57755 11.0224 4.5968 10.8749 4.62043C10.7625 4.63837 10.6509 4.65937 10.5385 4.67949C10.3963 4.70443 10.2533 4.72893 10.1115 4.75737C9.99732 4.78012 9.88444 4.80637 9.77069 4.83087C9.63157 4.86149 9.49288 4.89124 9.35463 4.92449C9.24088 4.95205 9.128 4.98268 9.01469 5.01199C8.87863 5.04743 8.743 5.08243 8.60825 5.12093C8.49407 5.1533 8.38119 5.1883 8.26788 5.22287C8.13663 5.26355 8.00188 5.3038 7.87019 5.34712C7.75688 5.3843 7.64488 5.42368 7.53288 5.46305C7.40163 5.5068 7.27038 5.55449 7.14219 5.60262C7.03063 5.64637 6.91994 5.69012 6.80925 5.73387C6.68019 5.78505 6.552 5.83624 6.42425 5.89005C6.31444 5.93599 6.20551 5.98368 6.09657 6.0318C5.97013 6.08824 5.84369 6.14468 5.71813 6.20374C5.61007 6.25405 5.50244 6.30612 5.39525 6.35905C5.27071 6.4203 5.14661 6.48272 5.02294 6.5463C4.91765 6.60085 4.81265 6.6567 4.70794 6.71387C4.58457 6.78037 4.46251 6.84818 4.34044 6.91774C4.23719 6.97607 4.13423 7.03601 4.03157 7.09755C3.91082 7.1693 3.79065 7.24222 3.67107 7.3163C3.57044 7.3793 3.46982 7.44274 3.37007 7.50749C3.25107 7.58507 3.1328 7.66397 3.01525 7.74418C2.91682 7.81111 2.81882 7.87849 2.72169 7.94762C2.67575 7.97999 2.6285 8.01061 2.58257 8.04343L0.939316 5.35411C0.881365 5.25747 0.863747 5.14191 0.890268 5.03239C0.91679 4.92286 0.985321 4.82817 1.08107 4.76874Z" fill="black"/>
<path d="M14 17.9375C13.2751 17.9375 12.6875 18.5251 12.6875 19.25C12.6875 19.9749 13.2751 20.5625 14 20.5625C14.7249 20.5625 15.3125 19.9749 15.3125 19.25C15.3125 18.5251 14.7249 17.9375 14 17.9375Z" fill="#FF0000"/>
<path d="M14 17.5C14.3461 17.5 14.6845 17.6026 14.9722 17.7949C15.26 17.9872 15.4843 18.2605 15.6168 18.5803C15.7492 18.9001 15.7839 19.2519 15.7164 19.5914C15.6488 19.9309 15.4822 20.2427 15.2374 20.4874C14.9927 20.7322 14.6809 20.8988 14.3414 20.9664C14.0019 21.0339 13.6501 20.9992 13.3303 20.8668C13.0105 20.7343 12.7372 20.51 12.5449 20.2222C12.3526 19.9345 12.25 19.5961 12.25 19.25C12.25 18.7859 12.4344 18.3408 12.7626 18.0126C13.0908 17.6844 13.5359 17.5 14 17.5ZM14 20.125C14.1731 20.125 14.3422 20.0737 14.4861 19.9775C14.63 19.8814 14.7422 19.7447 14.8084 19.5848C14.8746 19.425 14.8919 19.249 14.8582 19.0793C14.8244 18.9096 14.7411 18.7537 14.6187 18.6313C14.4963 18.5089 14.3404 18.4256 14.1707 18.3918C14.001 18.3581 13.825 18.3754 13.6652 18.4416C13.5053 18.5078 13.3686 18.62 13.2725 18.7639C13.1763 18.9078 13.125 19.0769 13.125 19.25C13.125 19.4821 13.2172 19.7046 13.3813 19.8687C13.5454 20.0328 13.7679 20.125 14 20.125Z" fill="black"/>
<path d="M20.125 8.75C19.4001 8.75 18.8125 9.33763 18.8125 10.0625C18.8125 10.7874 19.4001 11.375 20.125 11.375C20.8499 11.375 21.4375 10.7874 21.4375 10.0625C21.4375 9.33763 20.8499 8.75 20.125 8.75Z" fill="#FF0000"/>
<path d="M20.125 8.3125C20.4711 8.3125 20.8095 8.41513 21.0972 8.60743C21.385 8.79972 21.6093 9.07303 21.7418 9.3928C21.8742 9.71257 21.9089 10.0644 21.8414 10.4039C21.7738 10.7434 21.6072 11.0552 21.3624 11.2999C21.1177 11.5447 20.8059 11.7113 20.4664 11.7789C20.1269 11.8464 19.7751 11.8117 19.4553 11.6793C19.1355 11.5468 18.8622 11.3225 18.6699 11.0347C18.4776 10.747 18.375 10.4086 18.375 10.0625C18.375 9.59837 18.5594 9.15325 18.8876 8.82506C19.2158 8.49687 19.6609 8.3125 20.125 8.3125ZM20.125 10.9375C20.2981 10.9375 20.4672 10.8862 20.6111 10.79C20.755 10.6939 20.8672 10.5572 20.9334 10.3973C20.9996 10.2375 21.0169 10.0615 20.9832 9.89179C20.9494 9.72206 20.8661 9.56615 20.7437 9.44378C20.6213 9.32141 20.4654 9.23807 20.2957 9.20431C20.126 9.17055 19.95 9.18788 19.7902 9.2541C19.6303 9.32033 19.4936 9.43248 19.3975 9.57637C19.3013 9.72027 19.25 9.88944 19.25 10.0625C19.25 10.2946 19.3422 10.5171 19.5063 10.6812C19.6704 10.8453 19.8929 10.9375 20.125 10.9375Z" fill="black"/>
<path d="M7.875 8.75C7.15013 8.75 6.5625 9.33763 6.5625 10.0625C6.5625 10.7874 7.15013 11.375 7.875 11.375C8.59987 11.375 9.1875 10.7874 9.1875 10.0625C9.1875 9.33763 8.59987 8.75 7.875 8.75Z" fill="#FF0000"/>
<path d="M7.875 8.3125C8.22112 8.3125 8.55946 8.41513 8.84725 8.60743C9.13503 8.79972 9.35934 9.07303 9.49179 9.3928C9.62424 9.71257 9.6589 10.0644 9.59137 10.4039C9.52385 10.7434 9.35718 11.0552 9.11244 11.2999C8.86769 11.5447 8.55587 11.7113 8.21641 11.7789C7.87694 11.8464 7.52507 11.8117 7.2053 11.6793C6.88553 11.5468 6.61222 11.3225 6.41993 11.0347C6.22764 10.747 6.125 10.4086 6.125 10.0625C6.125 9.59837 6.30937 9.15325 6.63756 8.82506C6.96575 8.49687 7.41087 8.3125 7.875 8.3125ZM7.875 10.9375C8.04806 10.9375 8.21723 10.8862 8.36112 10.79C8.50502 10.6939 8.61717 10.5572 8.68339 10.3973C8.74962 10.2375 8.76695 10.0615 8.73319 9.89179C8.69942 9.72206 8.61609 9.56615 8.49372 9.44378C8.37135 9.32141 8.21544 9.23807 8.0457 9.20431C7.87597 9.17055 7.70004 9.18788 7.54015 9.2541C7.38027 9.32033 7.24361 9.43248 7.14746 9.57637C7.05132 9.72027 7 9.88944 7 10.0625C7 10.2946 7.09219 10.5171 7.25628 10.6812C7.42037 10.8453 7.64293 10.9375 7.875 10.9375Z" fill="black"/>
<path d="M14 7.4375C13.2751 7.4375 12.6875 8.02513 12.6875 8.75C12.6875 9.47487 13.2751 10.0625 14 10.0625C14.7249 10.0625 15.3125 9.47487 15.3125 8.75C15.3125 8.02513 14.7249 7.4375 14 7.4375Z" fill="#FF0000"/>
<path d="M14 7C14.3461 7 14.6845 7.10263 14.9722 7.29493C15.26 7.48722 15.4843 7.76053 15.6168 8.0803C15.7492 8.40007 15.7839 8.75194 15.7164 9.09141C15.6488 9.43087 15.4822 9.74269 15.2374 9.98744C14.9927 10.2322 14.6809 10.3988 14.3414 10.4664C14.0019 10.5339 13.6501 10.4992 13.3303 10.3668C13.0105 10.2343 12.7372 10.01 12.5449 9.72225C12.3526 9.43446 12.25 9.09612 12.25 8.75C12.25 8.28587 12.4344 7.84075 12.7626 7.51256C13.0908 7.18437 13.5359 7 14 7ZM14 9.625C14.1731 9.625 14.3422 9.57368 14.4861 9.47754C14.63 9.38139 14.7422 9.24473 14.8084 9.08485C14.8746 8.92496 14.8919 8.74903 14.8582 8.57929C14.8244 8.40956 14.7411 8.25365 14.6187 8.13128C14.4963 8.00891 14.3404 7.92557 14.1707 7.89181C14.001 7.85805 13.825 7.87538 13.6652 7.9416C13.5053 8.00783 13.3686 8.11998 13.2725 8.26387C13.1763 8.40777 13.125 8.57694 13.125 8.75C13.125 8.98206 13.2172 9.20462 13.3813 9.36872C13.5454 9.53281 13.7679 9.625 14 9.625Z" fill="black"/>
<path d="M17.5 13.5625C16.7751 13.5625 16.1875 14.1501 16.1875 14.875C16.1875 15.5999 16.7751 16.1875 17.5 16.1875C18.2249 16.1875 18.8125 15.5999 18.8125 14.875C18.8125 14.1501 18.2249 13.5625 17.5 13.5625Z" fill="#FF0000"/>
<path d="M17.5 13.125C17.8461 13.125 18.1845 13.2276 18.4722 13.4199C18.76 13.6122 18.9843 13.8855 19.1168 14.2053C19.2492 14.5251 19.2839 14.8769 19.2164 15.2164C19.1488 15.5559 18.9822 15.8677 18.7374 16.1124C18.4927 16.3572 18.1809 16.5238 17.8414 16.5914C17.5019 16.6589 17.1501 16.6242 16.8303 16.4918C16.5105 16.3593 16.2372 16.135 16.0449 15.8472C15.8526 15.5595 15.75 15.2211 15.75 14.875C15.75 14.4109 15.9344 13.9658 16.2626 13.6376C16.5908 13.3094 17.0359 13.125 17.5 13.125ZM17.5 15.75C17.6731 15.75 17.8422 15.6987 17.9861 15.6025C18.13 15.5064 18.2422 15.3697 18.3084 15.2098C18.3746 15.05 18.3919 14.874 18.3582 14.7043C18.3244 14.5346 18.2411 14.3787 18.1187 14.2563C17.9963 14.1339 17.8404 14.0506 17.6707 14.0168C17.501 13.9831 17.325 14.0004 17.1652 14.0666C17.0053 14.1328 16.8686 14.245 16.7725 14.3889C16.6763 14.5328 16.625 14.7019 16.625 14.875C16.625 15.1071 16.7172 15.3296 16.8813 15.4937C17.0454 15.6578 17.2679 15.75 17.5 15.75Z" fill="black"/>
<path d="M10.5 13.5625C9.77513 13.5625 9.1875 14.1501 9.1875 14.875C9.1875 15.5999 9.77513 16.1875 10.5 16.1875C11.2249 16.1875 11.8125 15.5999 11.8125 14.875C11.8125 14.1501 11.2249 13.5625 10.5 13.5625Z" fill="#FF0000"/>
<path d="M10.5 13.125C10.8461 13.125 11.1845 13.2276 11.4722 13.4199C11.76 13.6122 11.9843 13.8855 12.1168 14.2053C12.2492 14.5251 12.2839 14.8769 12.2164 15.2164C12.1488 15.5559 11.9822 15.8677 11.7374 16.1124C11.4927 16.3572 11.1809 16.5238 10.8414 16.5914C10.5019 16.6589 10.1501 16.6242 9.8303 16.4918C9.51053 16.3593 9.23722 16.135 9.04493 15.8472C8.85264 15.5595 8.75 15.2211 8.75 14.875C8.75 14.4109 8.93437 13.9658 9.26256 13.6376C9.59075 13.3094 10.0359 13.125 10.5 13.125ZM10.5 15.75C10.6731 15.75 10.8422 15.6987 10.9861 15.6025C11.13 15.5064 11.2422 15.3697 11.3084 15.2098C11.3746 15.05 11.3919 14.874 11.3582 14.7043C11.3244 14.5346 11.2411 14.3787 11.1187 14.2563C10.9963 14.1339 10.8404 14.0506 10.6707 14.0168C10.501 13.9831 10.325 14.0004 10.1652 14.0666C10.0053 14.1328 9.86861 14.245 9.77246 14.3889C9.67632 14.5328 9.625 14.7019 9.625 14.875C9.625 15.1071 9.71719 15.3296 9.88128 15.4937C10.0454 15.6578 10.2679 15.75 10.5 15.75Z" fill="black"/>
<path d="M16.1875 11.375L17.0625 11.375C17.1785 11.375 17.2898 11.4211 17.3719 11.5031C17.4539 11.5852 17.5 11.6965 17.5 11.8125C17.5 11.9285 17.4539 12.0398 17.3719 12.1219C17.2898 12.2039 17.1785 12.25 17.0625 12.25L16.1875 12.25C16.0715 12.25 15.9602 12.2039 15.8781 12.1219C15.7961 12.0398 15.75 11.9285 15.75 11.8125C15.75 11.6965 15.7961 11.5852 15.8781 11.5031C15.9602 11.4211 16.0715 11.375 16.1875 11.375Z" fill="#D39953"/>
<path d="M10.9375 11.375L11.8125 11.375C11.9285 11.375 12.0398 11.4211 12.1219 11.5031C12.2039 11.5852 12.25 11.6965 12.25 11.8125C12.25 11.9285 12.2039 12.0398 12.1219 12.1219C12.0398 12.2039 11.9285 12.25 11.8125 12.25L10.9375 12.25C10.8215 12.25 10.7102 12.2039 10.6281 12.1219C10.5461 12.0398 10.5 11.9285 10.5 11.8125C10.5 11.6965 10.5461 11.5852 10.6281 11.5031C10.7102 11.4211 10.8215 11.375 10.9375 11.375Z" fill="#D39953"/>
<path d="M13.5625 14.875L14.4375 14.875C14.5535 14.875 14.6648 14.9211 14.7469 15.0031C14.8289 15.0852 14.875 15.1965 14.875 15.3125C14.875 15.4285 14.8289 15.5398 14.7469 15.6219C14.6648 15.7039 14.5535 15.75 14.4375 15.75L13.5625 15.75C13.4465 15.75 13.3352 15.7039 13.2531 15.6219C13.1711 15.5398 13.125 15.4285 13.125 15.3125C13.125 15.1965 13.1711 15.0852 13.2531 15.0031C13.3352 14.9211 13.4465 14.875 13.5625 14.875Z" fill="#D39953"/>
<path d="M17.0625 17.5L17.9375 17.5C18.0535 17.5 18.1648 17.5461 18.2469 17.6281C18.3289 17.7102 18.375 17.8215 18.375 17.9375C18.375 18.0535 18.3289 18.1648 18.2469 18.2469C18.1648 18.3289 18.0535 18.375 17.9375 18.375L17.0625 18.375C16.9465 18.375 16.8352 18.3289 16.7531 18.2469C16.6711 18.1648 16.625 18.0535 16.625 17.9375C16.625 17.8215 16.6711 17.7102 16.7531 17.6281C16.8352 17.5461 16.9465 17.5 17.0625 17.5Z" fill="#D39953"/>
<path d="M10.0625 17.5L10.9375 17.5C11.0535 17.5 11.1648 17.5461 11.2469 17.6281C11.3289 17.7102 11.375 17.8215 11.375 17.9375C11.375 18.0535 11.3289 18.1648 11.2469 18.2469C11.1648 18.3289 11.0535 18.375 10.9375 18.375L10.0625 18.375C9.94647 18.375 9.83519 18.3289 9.75314 18.2469C9.67109 18.1648 9.625 18.0535 9.625 17.9375C9.625 17.8215 9.67109 17.7102 9.75314 17.6281C9.83519 17.5461 9.94647 17.5 10.0625 17.5Z" fill="#D39953"/>
</g>
<defs>
<clipPath id="clip0_105_22">
<rect width="28" height="28" fill="white" transform="translate(28 28) rotate(-180)"/>
</clipPath>
</defs>
</svg>
